<?xml version="1.0" encoding="UTF-8"?>
<svg version="1.1" xmlns="http://www.w3.org/2000/svg" width="500" height="500">
<path d="M0 0 C1.33336354 0.30547264 2.66674327 0.61087462 4.00013733 0.91621399 C22.5465767 5.18734958 41.0266532 9.74477181 59.50415039 14.30297852 C64.81503592 15.61258546 70.12875574 16.91030967 75.44313717 18.20564556 C79.58577142 19.21759258 83.72627583 20.23804679 87.86624336 21.26084328 C89.82655887 21.74360862 91.78765254 22.2232264 93.74955559 22.69949913 C96.47459145 23.36186378 99.19638096 24.03627211 101.91772461 24.71362305 C103.10595573 24.9981559 103.10595573 24.9981559 104.31819153 25.28843689 C112.63603995 27.38711469 118.79917022 30.09801474 123.87109375 37.16796875 C126.07128441 41.56835008 125.5437477 47.0635406 124.07910156 51.64575195 C120.21068816 60.66898504 115.91230692 69.47174134 111.5765686 78.27801514 C109.31485196 82.87200223 107.06459896 87.47160518 104.8125 92.0703125 C104.37364975 92.96558655 103.9347995 93.8608606 103.48265076 94.78326416 C100.34587479 101.18567615 97.24427011 107.6037907 94.18359375 114.04296875 C89.90466431 123.02734195 85.59105292 131.99467277 81.25424194 140.95123291 C80.51283383 142.48340845 79.77241692 144.01606411 79.03311157 145.54925537 C64.84650127 174.96172246 64.84650127 174.96172246 59.55859375 177.10546875 C55.56966433 177.19823455 53.95081626 175.65274486 50.87109375 173.16796875 C49.16596002 170.67606618 47.92584993 168.0395392 46.68359375 165.29296875 C46.18956055 164.25076172 46.18956055 164.25076172 45.68554688 163.1875 C45.04140505 161.82750274 44.4033184 160.46461736 43.77197266 159.09863281 C42.52570024 156.42775957 41.20226055 153.79733227 39.87109375 151.16796875 C26.18292976 156.95659461 12.71386685 163.09612489 -0.64892578 169.60107422 C-8.38709043 173.35896628 -16.15430345 176.93980237 -24.12890625 180.16796875 C-16.52618965 184.96374545 -8.81521368 189.53323869 -1.00390625 193.98046875 C-0.11123047 194.48964844 0.78144531 194.99882812 1.70117188 195.5234375 C6.15794978 198.06287573 10.62123529 200.58994983 15.09375 203.1015625 C23.55007736 207.87876374 31.66067446 212.58280723 38.87109375 219.16796875 C39.61101562 219.81636719 40.3509375 220.46476563 41.11328125 221.1328125 C58.47459244 237.26261199 68.03591193 261.09586138 69.28515625 284.5 C70.25849158 315.19766896 61.90437753 344.17653014 40.87109375 367.16796875 C28.95601963 379.56185575 14.0551991 386.24375237 -1.37890625 393.16796875 C-2.84923559 393.83402371 -4.31928844 394.50068937 -5.7890625 395.16796875 C-12.47280808 398.19697573 -19.17209103 401.19013991 -25.88168335 404.16140747 C-34.78329211 408.10390473 -43.63465925 412.14581338 -52.4692688 416.23596191 C-65.8003867 422.40371634 -79.17706454 428.4429839 -92.66110229 434.26901245 C-99.78823492 437.34870075 -106.87573081 440.48335429 -113.88671875 443.8203125 C-114.516884 444.11900238 -115.14704926 444.41769226 -115.79631042 444.72543335 C-118.75985472 446.13180982 -121.71497506 447.55089754 -124.66040039 448.99511719 C-135.19388588 454.02752344 -145.67540917 456.75812733 -157.37890625 456.66796875 C-158.27150146 456.66224854 -159.16409668 456.65652832 -160.08374023 456.65063477 C-177.6327744 456.18696933 -192.83254845 449.11390475 -205.5234375 437.02734375 C-217.77664262 423.58004817 -225.00749242 405.75310886 -224.37890625 387.40625 C-222.10725342 367.06785826 -213.95950051 350.44956902 -198.12890625 337.16796875 C-182.44142172 326.13355166 -163.01763749 319.15304494 -145.50805664 311.48095703 C-135.73734998 307.16235131 -126.1022593 302.54185793 -116.44482422 297.97729492 C-115.03093628 297.30905705 -113.61703673 296.64084377 -112.203125 295.97265625 C-111.17898499 295.48860069 -111.17898499 295.48860069 -110.13415527 294.99476624 C-103.81717998 292.0129974 -97.47783405 289.0811274 -91.12890625 286.16796875 C-96.56666233 282.82952337 -102.06400889 279.63711417 -107.66186523 276.57568359 C-136.22631836 260.93118899 -167.48158114 238.92845672 -178.1015625 206.7109375 C-180.9285315 196.96165658 -182.68249143 187.30995553 -183.12890625 177.16796875 C-183.17015625 176.32363281 -183.21140625 175.47929687 -183.25390625 174.609375 C-183.94646854 146.17103578 -173.73025769 120.14297865 -154.26196289 99.39453125 C-142.81942256 87.48120987 -130.4879234 79.71464109 -115.21780396 73.58209229 C-113.18347889 72.76466998 -111.155563 71.93281879 -109.12866211 71.09716797 C-106.39079069 69.96870671 -103.65142882 68.84402333 -100.91064453 67.72265625 C-84.38728579 60.94660364 -68.20834648 53.45571845 -52.06065369 45.84010315 C-51.39352859 45.5254863 -50.7264035 45.21086945 -50.0390625 44.88671875 C-49.37544205 44.57375351 -48.71182159 44.26078827 -48.02809143 43.93833923 C-38.10100154 39.26319435 -28.11561985 34.71405194 -18.12890625 30.16796875 C-18.12890625 27.09609408 -18.54363585 25.94715914 -19.84375 23.25390625 C-20.20017578 22.49207031 -20.55660156 21.73023437 -20.92382812 20.9453125 C-21.67574078 19.36436795 -22.43340844 17.78614558 -23.19726562 16.2109375 C-25.62875387 10.97995197 -27.28985492 6.00724664 -27.12890625 0.16796875 C-22.99607167 -8.0977004 -7.01181374 -1.62557317 0 0 Z " fill="#0B0B0B" transform="translate(299.12890625,14.83203125)"/>
<path d="M0 0 C1.33336354 0.30547264 2.66674327 0.61087462 4.00013733 0.91621399 C22.5465767 5.18734958 41.0266532 9.74477181 59.50415039 14.30297852 C64.81503592 15.61258546 70.12875574 16.91030967 75.44313717 18.20564556 C79.58577142 19.21759258 83.72627583 20.23804679 87.86624336 21.26084328 C89.82655887 21.74360862 91.78765254 22.2232264 93.74955559 22.69949913 C96.47459145 23.36186378 99.19638096 24.03627211 101.91772461 24.71362305 C102.70987869 24.90331161 103.50203278 25.09300018 104.31819153 25.28843689 C112.63603995 27.38711469 118.79917022 30.09801474 123.87109375 37.16796875 C126.07128441 41.56835008 125.5437477 47.0635406 124.07910156 51.64575195 C120.21068816 60.66898504 115.91230692 69.47174134 111.5765686 78.27801514 C109.31485196 82.87200223 107.06459896 87.47160518 104.8125 92.0703125 C104.37364975 92.96558655 103.9347995 93.8608606 103.48265076 94.78326416 C100.34587479 101.18567615 97.24427011 107.6037907 94.18359375 114.04296875 C89.90466431 123.02734195 85.59105292 131.99467277 81.25424194 140.95123291 C80.51283383 142.48340845 79.77241692 144.01606411 79.03311157 145.54925537 C64.84650127 174.96172246 64.84650127 174.96172246 59.55859375 177.10546875 C55.56966433 177.19823455 53.95081626 175.65274486 50.87109375 173.16796875 C49.16596002 170.67606618 47.92584993 168.0395392 46.68359375 165.29296875 C46.35423828 164.59816406 46.02488281 163.90335938 45.68554688 163.1875 C45.04140505 161.82750274 44.4033184 160.46461736 43.77197266 159.09863281 C42.52570024 156.42775957 41.20226055 153.79733227 39.87109375 151.16796875 C39.08992188 151.7403125 38.30875 152.31265625 37.50390625 152.90234375 C33.46238484 155.39419467 29.66968053 157.02433635 24.87109375 157.16796875 C16.83329624 155.24499158 9.51576509 150.92345453 2.29931641 147.01416016 C-1.04938293 145.21079422 -4.42975121 143.49654158 -7.8359375 141.8046875 C-19.45549606 135.99230644 -30.65118852 129.86804694 -41.12890625 122.16796875 C-41.69496582 121.75450195 -42.26102539 121.34103516 -42.84423828 120.91503906 C-59.17555441 108.89408162 -76.76414529 94.12302078 -81.12890625 73.16796875 C-81.17187491 71.29346116 -81.16932812 69.41753299 -81.12890625 67.54296875 C-80.94847862 63.70590558 -80.94847862 63.70590558 -82.12890625 60.16796875 C-67.50381071 53.06800509 -52.85496339 46.04647467 -38.06103516 39.30371094 C-31.00416932 36.0768681 -24.04843733 32.67954442 -17.12890625 29.16796875 C-17.39630615 28.60924072 -17.66370605 28.0505127 -17.93920898 27.47485352 C-19.16207227 24.89969107 -20.36425749 22.31536221 -21.56640625 19.73046875 C-21.98728516 18.85197266 -22.40816406 17.97347656 -22.84179688 17.06835938 C-25.38218296 11.56080235 -27.36078086 6.32399631 -27.12890625 0.16796875 C-22.99607167 -8.0977004 -7.01181374 -1.62557317 0 0 Z " fill="#0F0F0F" transform="translate(299.12890625,14.83203125)"/>
<path d="M0 0 C0.99918457 0.47646973 1.99836914 0.95293945 3.02783203 1.44384766 C4.09243652 1.96124512 5.15704102 2.47864258 6.25390625 3.01171875 C7.35976074 3.54716309 8.46561523 4.08260742 9.60498047 4.63427734 C25.96908863 12.63050846 41.98409724 21.08770061 56.81640625 31.69921875 C57.88246094 32.45976562 58.94851562 33.2203125 60.046875 34.00390625 C66.67490547 38.8594216 72.84395207 44.06122201 78.81640625 49.69921875 C79.67363281 50.48039062 80.53085938 51.2615625 81.4140625 52.06640625 C90.87660265 61.00087101 97.54955426 71.02575412 98.12890625 84.26171875 C98.23158671 88.44002347 97.06305089 92.19090976 94.81640625 95.69921875 C92.31710658 97.35011322 90.26673639 98.46823116 87.5546875 99.609375 C86.82476593 99.93870529 86.09484436 100.26803558 85.34280396 100.60734558 C82.9475174 101.6813941 80.53900792 102.72139563 78.12890625 103.76171875 C76.44904261 104.50739664 74.7700965 105.25514474 73.09204102 106.00488281 C68.82347409 107.90496368 64.54331418 109.77699871 60.25769043 111.63824463 C56.57822986 113.23732616 52.90469197 114.84986895 49.23046875 116.4609375 C45.26720267 118.19753725 41.3022786 119.92991734 37.33007812 121.64599609 C30.85645432 124.44841219 24.42842113 127.31977184 18.05859375 130.3515625 C17.4284285 130.65025238 16.79826324 130.94894226 16.14900208 131.25668335 C13.18545778 132.66305982 10.23033744 134.08214754 7.28491211 135.52636719 C-3.24857338 140.55877344 -13.73009667 143.28937733 -25.43359375 143.19921875 C-26.77248657 143.19063843 -26.77248657 143.19063843 -28.13842773 143.18188477 C-45.6874619 142.71821933 -60.88723595 135.64515475 -73.578125 123.55859375 C-85.83133012 110.11129817 -93.06217992 92.28435886 -92.43359375 73.9375 C-90.16194092 53.59910826 -82.01418801 36.98081902 -66.18359375 23.69921875 C-53.52322953 14.79404731 -38.24270012 9.01804915 -24.18359375 2.69921875 C-22.91136606 2.10989968 -21.63923189 1.52037867 -20.3671875 0.93066406 C-19.1188374 0.3657672 -17.87014949 -0.19838387 -16.62109375 -0.76171875 C-14.94853516 -1.52814697 -14.94853516 -1.52814697 -13.2421875 -2.31005859 C-8.10108418 -3.97533615 -4.70391171 -2.24808874 0 0 Z " fill="#0B0B0B" transform="translate(167.18359375,328.30078125)"/>
<path d="M0 0 C0.68553955 0.37922607 1.3710791 0.75845215 2.07739258 1.14916992 C2.86307617 1.58060303 3.64875977 2.01203613 4.45825195 2.45654297 C5.70251953 3.16097534 5.70251953 3.16097534 6.97192383 3.87963867 C7.84397461 4.3666626 8.71602539 4.85368652 9.61450195 5.35546875 C18.17397331 10.18904351 26.49350304 15.38185057 34.73510742 20.73608398 C36.53383687 21.90437955 38.34017637 23.06094111 40.14770508 24.21557617 C55.10955796 33.92591778 71.69264975 45.03406473 76.35864258 63.31713867 C78.4950719 77.11572803 76.72525762 89.35221378 68.55004883 100.87182617 C63.39019045 107.2874023 57.56676119 112.45514926 50.78442383 117.06713867 C49.76582408 118.04818635 48.76076494 119.04402673 47.78442383 120.06713867 C46.78442383 117.06713867 46.78442383 117.06713867 47.78442383 114.06713867 C49.00145552 102.6223599 44.73151396 92.95667176 37.78442383 84.06713867 C24.16367662 68.25094208 6.92972955 56.1598888 -11.21557617 46.06713867 C-12.08811035 45.57890625 -12.96064453 45.09067383 -13.85961914 44.58764648 C-25.67062966 38.00708347 -37.57227486 31.7428917 -49.88012695 26.13769531 C-50.70109863 25.75991943 -51.52207031 25.38214355 -52.36791992 24.99291992 C-53.45061157 24.50432495 -53.45061157 24.50432495 -54.55517578 24.00585938 C-56.21557617 23.06713867 -56.21557617 23.06713867 -57.21557617 21.06713867 C-52.32702098 18.75517679 -47.43808774 16.44401676 -42.54882812 14.13354492 C-40.89150173 13.35022746 -39.23427231 12.56670479 -37.57714844 11.78295898 C-36.77784912 11.40494141 -35.9785498 11.02692383 -35.1550293 10.63745117 C-33.96355789 10.07383881 -33.96355789 10.07383881 -32.74801636 9.49884033 C-31.15865938 8.74871633 -29.56826663 8.00078293 -27.97683716 7.25506592 C-24.41500393 5.58589701 -20.86554299 3.90298158 -17.34985352 2.13842773 C-16.21628418 1.58123047 -15.08271484 1.0240332 -13.91479492 0.44995117 C-12.94759521 -0.03844238 -11.98039551 -0.52683594 -10.98388672 -1.0300293 C-6.89716905 -2.36283483 -3.8997154 -1.64196281 0 0 Z " fill="#00B900" transform="translate(216.215576171875,302.932861328125)"/>
<path d="M0 0 C1.21653173 2.43306346 0.972366 3.73706073 0.8125 6.4375 C0.73146169 20.55842496 9.9826806 33.57313858 19.33984375 43.41015625 C34.8528121 58.51309019 54.02470192 69.68700472 73.1875 79.5 C74.12521744 79.98341354 74.12521744 79.98341354 75.08187866 80.47659302 C85.22339466 85.70129441 95.47595079 90.59032476 106 95 C103.47142493 97.93527276 100.71254561 99.25214146 97.21484375 100.85546875 C96.05218994 101.39220215 94.88953613 101.92893555 93.69165039 102.48193359 C92.4404931 103.0509533 91.18910518 103.61946613 89.9375 104.1875 C88.66579478 104.76873794 87.39422957 105.35028228 86.12280273 105.93212891 C83.59364083 107.08820645 81.06251338 108.23984267 78.53027344 109.38916016 C75.4499219 110.79470369 72.38267812 112.22380398 69.3203125 113.66796875 C67.73460865 114.40414931 66.148691 115.13986964 64.5625 115.875 C63.85536865 116.21426514 63.1482373 116.55353027 62.41967773 116.90307617 C59.67398038 118.15444731 57.47870732 119.01240552 54.4375 118.93359375 C51.20852295 117.69685414 48.35325089 116.01895233 45.4375 114.1875 C44.0992179 113.36546269 42.76066166 112.54387156 41.421875 111.72265625 C40.70837891 111.28195801 39.99488281 110.84125977 39.25976562 110.38720703 C36.09352188 108.44353839 32.90402018 106.5396782 29.71435547 104.63476562 C26.31663781 102.60467036 22.92544102 100.56380588 19.53417969 98.52294922 C17.85640223 97.51466639 16.17738073 96.50845049 14.49707031 95.50439453 C-2.84955696 85.13570135 -18.84302353 75.04941766 -24.7421875 54.40234375 C-27.6166 41.66436506 -25.36538898 31.18808461 -18.9375 19.875 C-13.77761499 12.21839644 -7.15518134 5.78727902 0 0 Z " fill="#00B300" transform="translate(218,76)"/>
</svg>
