<?xml version="1.0" encoding="UTF-8"?>
<svg width="32" height="32" viewBox="0 0 240 240" xmlns="http://www.w3.org/2000/svg" fill="white">
  <!-- Telegram glyph in white. Background color is provided by parent container. -->
  <path d="M120 0C53.7 0 0 53.7 0 120s53.7 120 120 120 120-53.7 120-120S186.3 0 120 0zm58.2 80.7-18.1 85.5c-1.4 6.3-5.2 7.8-10.5 4.9l-29-21.4-14 13.5c-1.6 1.6-3 3-6.1 3l2.2-31.5 57.3-51.7c2.5-2.2-.5-3.5-3.9-1.3l-70.8 44.6-30.5-9.5c-6.6-2.1-6.8-6.6 1.4-9.8l119-45.9c5.5-2 10.2 1.3 8.6 9.7z"/>
</svg>
